<svg xmlns="http://www.w3.org/2000/svg" height="800" width="1200" viewBox="-94.729695 -17.629725 820.99069 105.77835"><path d="M35.2808 70.1022c-19.2164 0-34.8507-15.645-34.8507-34.8695C.43 16.0431 16.0644.4274 35.2808.4274c19.203 0 34.832 15.6157 34.832 34.8053 0 19.2244-15.629 34.8695-34.832 34.8695" fill="#fff"/><path d="M35.2594 0C15.784 0 0 15.8347 0 35.2594 0 54.751 15.784 70.519 35.2594 70.519c19.4648 0 35.2595-15.768 35.2595-35.2595C70.5189 15.9496 54.9833 0 35.2594 0zm-9.95 9.9501l9.8833 32.655.0667.0668.0667-.0667 9.8833-32.655 12.7548 41.8705h-2.404s-1.6-7.311-4.2071-11.6864c-1.4264-2.3186-3.6034-4.2124-6.5444-4.1403-2.0942.0293-3.9373 1.0685-6.1437 4.2071-1.373 1.8912-3.4057 6.678-3.4057 6.678s-2.0355-4.7868-3.4058-6.678c-2.2464-3.1386-4.02-4.1777-6.0769-4.207-2.957-.0723-5.1607 1.8216-6.6111 4.1402-2.599 4.3754-4.2071 11.6864-4.2071 11.6864h-2.404L25.3091 9.95zm132.8238 12.688c-1.7923.0172-3.9079.2645-5.5426.601-7.0412 1.4024-15.848 7.6663-14.2908 15.8268 1.2822 6.8275 10.4977 10.527 20.9019 8.481 9.7738-1.8672 16.1339-9.3679 14.825-15.9603-1.3623-6.4883-8.9725-8.9484-15.8935-8.9484zm68.1816 0c-1.8324.0172-3.9613.2645-5.6094.601-7.0011 1.4024-15.8881 7.6663-14.3576 15.8268 1.3356 6.8275 10.618 10.527 21.0355 8.481 9.7471-1.8672 16.0644-9.3679 14.6914-15.9603-1.2955-6.4883-8.8763-8.9484-15.7599-8.9484zm74.0582 0c-1.8591.0172-3.8919.2645-5.6094.601-6.9478 1.4024-15.8347 7.6663-14.2908 15.8268 1.2955 6.8275 10.5404 10.527 20.9019 8.481 9.7738-1.8672 16.1579-9.3679 14.7582-15.9603-1.2821-6.4883-8.9057-8.9484-15.7599-8.9484zm106.179.1336c-6.483-.002-11.1147 2.6552-12.3542 7.279-.1763.6304-.267 1.218-.267 1.7362.0191 3.7076 4.0494 4.4502 7.9467 4.9417 3.94.4835 7.7357.78 7.6796 3.0718 0 .2244.004.4648-.0667.7346-.6625 2.5002-3.8625 4.4101-8.7481 4.4074-3.948-.009-6.272-1.3917-6.2773-3.8064 0-.3179.0455-.641.1336-1.0017l.0667-.2002h-3.8732l-.0667.1335c-.115.6117-.1336 1.1914-.1336 1.7363.0107 4.1296 3.3337 6.0716 9.2824 6.077 7.0305 0 12.0656-2.8235 13.3558-7.613.1496-.5769.2671-1.1512.2671-1.6694.004-2.1583-1.429-3.7503-4.4074-4.2739l-8.4142-1.5359c-2.2464-.406-2.8662-1.2528-2.8715-2.2037 0-.219.009-.4407.0667-.6678.6731-2.535 3.94-4.2098 7.279-4.207 3.5312.002 6.3386.7612 6.344 3.3389 0 .2217-.0267.4835-.0667.7345v.1336h3.8064l.0667-.0667c.115-.553.1335-1.0605.1335-1.536-.0107-4.3192-4.4555-5.5373-8.8816-5.5426zm29.9171 0c-9.9902 0-15.2417 6.8916-16.7616 12.5545-.3205 1.1833-.5342 2.3827-.5342 3.6061 0 2.3026.6731 4.549 2.3373 6.2105 1.664 1.6668 4.3326 2.738 8.2806 2.738 9.9902 0 15.2417-6.8196 16.7616-12.4878.3152-1.1887.4674-2.4521.4674-3.6729 0-2.3052-.609-4.5463-2.2705-6.2104-1.6641-1.6668-4.3326-2.738-8.2806-2.738zm125.211 0c-9.9928 0-15.247 6.889-16.7615 12.5545-.3206 1.186-.4675 2.388-.4675 3.6061 0 2.3026.6037 4.549 2.2705 6.2105 1.6615 1.6641 4.33 2.7406 8.2806 2.738 9.9876.002 15.2417-6.8223 16.7616-12.4878.3152-1.186.5343-2.4521.5343-3.6729 0-2.3052-.6758-4.5463-2.3373-6.2104-1.6641-1.6668-4.3326-2.738-8.2806-2.738zm60.9027 0c-6.4802-.002-11.112 2.6552-12.3541 7.279-.1738.6304-.2671 1.218-.2671 1.7362.0192 3.7023 4.0521 4.4475 7.9467 4.9417 3.9426.4835 7.8025.78 7.7464 3.0718 0 .2244-.0588.4648-.1336.7346-.6598 2.5002-3.7984 4.4074-8.6813 4.4074-3.9506-.0107-6.3387-1.397-6.344-3.8064 0-.3205.048-.641.1336-1.0017l.0667-.2002h-3.8732v.1335c-.1176.6117-.2003 1.1914-.2003 1.7363.0107 4.1296 3.339 6.0716 9.2823 6.077 7.0359 0 12.071-2.8235 13.3559-7.613.1524-.5796.2671-1.1539.2671-1.6694.009-2.161-1.4264-3.7503-4.4074-4.2739l-8.4142-1.5359c-2.2465-.406-2.8688-1.2528-2.8715-2.2037 0-.219.0748-.4407.1335-.6678.6759-2.5296 3.8732-4.2098 7.2122-4.207 3.5313.002 6.336.7612 6.344 3.3389 0 .2217-.0267.4808-.0667.7345v.1336h3.8732v-.0667c.1148-.553.2003-1.0605.2003-1.536-.0107-4.3192-4.5223-5.5373-8.9485-5.5426zm-166.8813.601l-.0667.1336-6.344 23.7734h21.4361l.7346-2.9383h-17.7633l5.6763-20.9687h-3.673zm125.1443 0l-6.4108 23.907h3.6729l5.3423-19.967 9.0152 19.967h4.8081l6.4108-23.907h-3.6728v.1336l-5.3424 19.9002-9.0152-20.0338zm-100.9034.0667l-3.8064 14.1572c-.3126 1.17-.4675 2.2278-.4675 3.2054.009 4.6986 3.5393 7.068 8.8817 7.0786 6.4588 0 12.0015-3.4297 13.8233-10.2172l3.8732-14.224h-3.673l-.0666.0667-3.8064 14.2908c-1.2047 4.4582-4.5864 7.14-9.4159 7.1454-3.9133-.0171-5.8659-1.7336-5.8766-4.7413 0-.7186.104-1.4799.334-2.3373l3.8731-14.4243h-3.6728zm28.0473 0l-.8682 3.1387h10.017l-5.5428 20.7015h3.6729l5.5427-20.7015h10.0169l.868-3.1387zm29.65 0v.0667l-6.4109 23.7734h3.6729l6.4108-23.8401h-3.6729zm-413.0296.0667l-8.6813 10.1505-3.0051-10.0169H101.037L94.092 47.146h7.4792l3.8064-12.9552 3.4058 12.9552h4.808l11.0187-12.1538-3.5393 12.1538h9.5494l6.6111-23.6399zm53.4901 0l-1.9366 7.7464h9.8834l-3.8065 15.8937h9.2156l4.1403-15.9602H205.68l1.7363-7.546-29.316-.1337zm182.0402 0L344.1802 47.146h7.9467l2.738-4.0735.0667-.1336h11.2857v.1336l1.0016 4.0735h9.2824l-5.3424-23.6399h-11.0186zm-110.8535.1336l-6.7447 23.5063h8.748l2.0034-7.0786 7.0119.1335c2.5376-.2564 2.6711 1.536 2.6711 1.536s-.0987 1.616-.267 3.2721c-.1176 1.8325 1.6694 2.137 1.6694 2.137h9.4826c-.7586-.6064-.8013-1.8351-.8013-2.6044 0-.5957.9937-2.0194.6678-4.2739-.2217-1.966-2.42-2.4708-2.738-2.738-.2858-.1175.0668-.4674.0668-.4674s5.9673-1.7069 6.5443-7.3457c.6919-5.6335-5.8098-6.0769-5.8098-6.0769h-22.5046zm73.791 0L317.001 47.146h23.7735l1.6694-6.4776h-14.6914l4.3407-17.0287zm112.6566 2.0702c4.6425.0128 7.3324 2.591 7.3457 6.6779 0 .9055-.12 1.8965-.4006 2.9383-1.5466 5.7697-6.4856 9.6162-12.1539 9.6162-4.6505-.0128-7.4044-2.527-7.4124-6.6112 0-.9055.187-1.8965.4674-2.9383 1.552-5.7697 6.4776-9.683 12.1538-9.683zm125.2111 0c4.6478.0107 7.3991 2.591 7.4125 6.6779 0 .9055-.187 1.8965-.4675 2.9383-1.5492 5.767-6.4802 9.6162-12.1538 9.6162-4.6478-.0107-7.335-2.5243-7.3457-6.6112 0-.9055.1254-1.8965.4007-2.9383 1.5546-5.767 6.4856-9.683 12.1538-9.683zm-261.7746 3.005c.3426-.0239.7299-.009 1.1352 0 2.8555.2297 5.6175 1.4424 6.077 3.6061 1.3195 6.491-5.5935 9.2262-4.8082 8.8149-3.9907 2.0594-10.0997 1.3783-10.8182-2.738-.7212-3.94 2.3346-7.8853 4.8749-8.8149 1.6087-.5729 2.5113-.7962 3.5393-.868zm-142.1062.0667c.3495-.015.6744.0214 1.0017.0667 2.85 0 5.711 1.3089 6.0769 3.4725 1.3863 6.491-5.5507 9.2263-4.6746 8.8149-4.0441 2.0595-10.2039 1.3783-10.885-2.738-.7212-3.94 2.404-7.8852 4.9417-8.8148 1.3442-.4568 2.4906-.7552 3.5393-.8014zm68.1148 0c.3583-.015.7312.0214 1.0685.0667 2.7993 0 5.604 1.3089 6.01 3.4725 1.4265 6.491-5.5105 9.2263-4.6745 8.8149-4.0308 2.0595-10.2546 1.3783-10.885-2.738-.6918-3.94 2.3907-7.8852 4.9417-8.8148 1.3142-.4568 2.4643-.7552 3.5393-.8014zm31.5198.2671l9.7498.0667s1.8831-.1335 1.7362 1.803c-.1282 2.2385-2.5376 2.6713-2.5376 2.6713h-10.0837l1.1353-4.541zm106.5796 1.4024l1.6027 6.945h-6.2772z"/></svg>